<svg xmlns="http://www.w3.org/2000/svg" xmlns:xlink="http://www.w3.org/1999/xlink" viewBox="0 0 48 48" width="48px" height="48px"><defs><linearGradient id="Gg7MCsovHB8vJnbPNxva7a" x1="32.63" x2="8.63" y1="8.98" y2="30.77" gradientUnits="userSpaceOnUse"><stop offset="0" stop-color="#6560fe"/><stop offset=".03" stop-color="#6e69fe"/><stop offset=".2" stop-color="#9a97fe"/><stop offset=".36" stop-color="#bebcfe"/><stop offset=".53" stop-color="#dad9fe"/><stop offset=".69" stop-color="#eeeefe"/><stop offset=".85" stop-color="#fafafe"/><stop offset="1" stop-color="#fff"/></linearGradient><linearGradient id="Gg7MCsovHB8vJnbPNxva7b" x1="41.78" x2="30.83" y1="30.35" y2="41.6" xlink:href="#Gg7MCsovHB8vJnbPNxva7a"/></defs><path fill="url(#Gg7MCsovHB8vJnbPNxva7a)" d="M23.47,30.13l-1.47,3.36c-.56,1.29-2.35,1.29-2.92,0l-1.47-3.36c-1.31-2.99-3.66-5.37-6.59-6.67l-4.04-1.79c-1.28-.57-1.28-2.44,0-3.01l3.91-1.74c3.01-1.33,5.4-3.8,6.68-6.9l1.49-3.58c.55-1.33,2.39-1.33,2.94,0l1.49,3.58c1.28,3.09,3.68,5.56,6.68,6.9l3.91,1.74c1.28.57,1.28,2.44,0,3.01l-4.04,1.79c-2.93,1.3-5.28,3.68-6.59,6.67Z"/><path fill="url(#Gg7MCsovHB8vJnbPNxva7b)" d="M37.24,41.32l-.41.94c-.3.69-1.25.69-1.55,0l-.41-.94c-.73-1.67-2.04-3-3.68-3.73l-1.26-.56c-.68-.3-.68-1.29,0-1.6l1.19-.53c1.68-.75,3.02-2.13,3.73-3.85l.42-1.01c.29-.71,1.27-.71,1.56,0l.42,1.01c.72,1.73,2.05,3.11,3.73,3.85l1.19.53c.68.3.68,1.29,0,1.6l-1.26.56c-1.64.73-2.95,2.06-3.68,3.73Z"/><path fill="none" stroke="#8251fe" stroke-linecap="round" stroke-linejoin="round" stroke-width="3" d="M26.5,26.17c-1.23,1.2-2.23,2.65-2.94,4.26l-1.51,3.46c-.58,1.33-2.42,1.33-3,0l-1.51-3.46c-1.35-3.08-3.77-5.54-6.79-6.88l-4.16-1.85c-1.32-.59-1.32-2.51,0-3.1l4.03-1.79c1.41-.63,2.69-1.5,3.79-2.56"/><path fill="none" stroke="#8251fe" stroke-linecap="round" stroke-linejoin="round" stroke-width="3" d="M17.5,9.72l1.53-3.69c.57-1.37,2.46-1.37,3.03,0l1.53,3.69c1.32,3.19,3.79,5.73,6.89,7.11l4.03,1.79c1.32.59,1.32,2.51,0,3.1l-4.16,1.85"/><path fill="none" stroke="#8251fe" stroke-linecap="round" stroke-linejoin="round" stroke-width="3" d="M31.39,37.53l-1.21-.54c-.65-.29-.65-1.24,0-1.53l1.14-.51c1.61-.72,2.89-2.04,3.58-3.7l.4-.97c.28-.68,1.22-.68,1.5,0l.4.97c.69,1.66,1.97,2.98,3.58,3.7l1.14.51c.65.29.65,1.24,0,1.53l-1.21.54c-1.57.7-2.83,1.97-3.53,3.58l-.39.9c-.29.66-1.2.66-1.48,0l-.39-.9"/></svg>